# xmcd CD database file
#
# Track frame offsets:
#	150
#	31000
#	57562
#	81662
#	115262
#	140150
#
# Disc length: 2293 seconds
#
# Revision: 0
# Processed by: cddbd v1.5.2PL0 Copyright (c) Steve Scherf et al.
# Submitted via: CDex 1.70beta3
#
DISCID=5508f306
DTITLE=Hank Mobley - Reach Out!
DYEAR=1968
DGENRE=Jazz
TTITLE0=Reach Out I'll Be There
TTITLE1=Up Over And Out
TTITLE2=Lookin' East
TTITLE3=Goin' Out Of My Head
TTITLE4=Good Pickin's
TTITLE5=Beverly
EXTD=YEAR: 1968
EXTT0=
EXTT1=
EXTT2=
EXTT3=
EXTT4=
EXTT5=
PLAYORDER=
